<svg width="16" height="15" viewBox="0 0 16 15" fill="none" xmlns="http://www.w3.org/2000/svg">
<rect x="5.22485" y="1.91992" width="4.74985" height="0.96" fill="#808FA3"/>
<path d="M11.3998 3.84C11.6621 3.84 11.8748 3.6251 11.8748 3.36V0.48C11.8748 0.214903 11.6621 0 11.3998 0C11.1375 0 10.9248 0.214903 10.9248 0.48V3.36C10.9248 3.6251 11.1375 3.84 11.3998 3.84Z" fill="#808FA3"/>
<path d="M3.79994 3.84C4.06226 3.84 4.27492 3.6251 4.27492 3.36V0.48C4.27492 0.214903 4.06226 0 3.79994 0C3.53761 0 3.32495 0.214903 3.32495 0.48V3.36C3.32495 3.6251 3.53761 3.84 3.79994 3.84Z" fill="#808FA3"/>
<rect x="11.3997" y="10.5601" width="0.94997" height="0.96" fill="#808FA3"/>
<rect x="8.5498" y="10.5601" width="0.94997" height="0.96" fill="#808FA3"/>
<rect x="5.69995" y="10.5601" width="0.94997" height="0.96" fill="#808FA3"/>
<rect x="2.8501" y="10.5601" width="0.94997" height="0.96" fill="#808FA3"/>
<rect x="11.3997" y="8.16016" width="0.94997" height="0.96" fill="#808FA3"/>
<rect x="8.5498" y="8.16016" width="0.94997" height="0.96" fill="#808FA3"/>
<rect x="5.69995" y="8.16016" width="0.94997" height="0.96" fill="#808FA3"/>
<rect x="2.8501" y="8.16016" width="0.94997" height="0.96" fill="#808FA3"/>
<rect x="11.3997" y="5.75977" width="0.94997" height="0.96" fill="#808FA3"/>
<rect x="8.5498" y="5.75977" width="0.94997" height="0.96" fill="#808FA3"/>
<rect x="5.69995" y="5.75977" width="0.94997" height="0.96" fill="#808FA3"/>
<rect x="2.8501" y="5.75977" width="0.94997" height="0.96" fill="#808FA3"/>
<path d="M14.3684 1.91992H12.8247V2.87992H14.2497V13.4399H0.950093V2.87992H2.37505V1.91992H0.831346C0.607103 1.92371 0.393536 2.01738 0.237644 2.18032C0.0817525 2.34326 -0.00368899 2.56211 0.000122243 2.78872V13.5311C-0.00368899 13.7577 0.0817525 13.9766 0.237644 14.1395C0.393536 14.3025 0.607103 14.3961 0.831346 14.3999H14.3684C14.5927 14.3961 14.8062 14.3025 14.9621 14.1395C15.118 13.9766 15.2035 13.7577 15.1996 13.5311V2.78872C15.2035 2.56211 15.118 2.34326 14.9621 2.18032C14.8062 2.01738 14.5927 1.92371 14.3684 1.91992Z" fill="#808FA3"/>
</svg>
