<svg width="16" height="16" viewBox="0 0 16 16" fill="none" xmlns="http://www.w3.org/2000/svg">
<circle cx="8" cy="8" r="8" fill="#858585"/>
<path d="M8.58782 7.99093L11.9038 4.6838C12.0397 4.52552 12.0306 4.28958 11.8828 4.14223C11.7351 3.99488 11.4985 3.98576 11.3398 4.12131L8.02382 7.42844L4.70783 4.11732C4.55098 3.96089 4.29668 3.96089 4.13983 4.11732C3.98298 4.27375 3.98298 4.52737 4.13983 4.6838L7.45982 7.99093L4.13983 11.2981C4.02568 11.3955 3.97596 11.5486 4.01111 11.6944C4.04625 11.8401 4.16034 11.9539 4.30646 11.9889C4.45258 12.024 4.60607 11.9744 4.70383 11.8605L8.02382 8.55342L11.3398 11.8605C11.4985 11.9961 11.7351 11.987 11.8828 11.8396C12.0306 11.6923 12.0397 11.4563 11.9038 11.2981L8.58782 7.99093Z" fill="white"/>
</svg>
