<svg width="93" height="93" viewBox="0 0 93 93" fill="none" xmlns="http://www.w3.org/2000/svg">
<circle cx="46.5" cy="46.5" r="45" fill="#E9E9E9" stroke="white" stroke-width="3"/>
<path d="M72.5393 76.4587C70.3465 74.7889 66.3659 72.0174 62.031 69.9689C57.6962 67.9376 55.1492 63.1693 55.8408 58.3665C55.8408 58.2977 55.8577 58.2288 55.8745 58.1427C55.8745 58.1427 65.7418 51.3259 64.3756 44.6812C64.3756 44.6812 64.6792 44.6984 65.1346 44.664C69.4863 44.2509 69.7562 37.6406 65.4551 36.9348C65.4213 36.9348 65.3707 36.9176 65.337 36.9176L65.2021 36.1946C66.5177 31.4951 69.7225 17.2589 60.0239 18.6361C60.0239 18.6361 53.0577 6.87876 38.3327 12.5422C23.5908 18.1885 27.4365 31.6673 27.4365 31.6673L29.2582 37.0381C25.2944 38.0365 25.6655 44.2853 29.8823 44.6812C30.3377 44.7156 30.6582 44.6984 30.6582 44.6984C29.2751 51.3431 39.1423 58.16 39.1423 58.16C39.1592 58.246 39.1592 58.3149 39.1761 58.3837C39.8508 63.1865 37.3038 67.9549 32.9858 69.9861C28.6341 72.0346 24.6703 74.8233 22.4776 76.4759C21.162 77.4571 19 80.125 19 80.125C26.5902 86.9246 36.6207 90 47.5 90C58.3962 90 67.4435 86.4653 75 79.6313C74.1229 78.2541 73.8549 77.4399 72.5393 76.4587Z" fill="#41596B"/>
</svg>
