<svg width="109" height="37" viewBox="0 0 109 37" fill="none" xmlns="http://www.w3.org/2000/svg">
<path fill-rule="evenodd" clip-rule="evenodd" d="M0 5C0 2.23858 2.23858 0 5 0H104C106.761 0 109 2.23858 109 5V32C109 34.7614 106.761 37 104 37H5C2.23858 37 0 34.7614 0 32V5Z" fill="#1E37F8"/>
<path d="M39.2109 24V13.3359H42.3604C43.3027 13.3359 44.1377 13.5459 44.8652 13.9658C45.5977 14.3857 46.1641 14.9814 46.5645 15.7529C46.9648 16.5244 47.165 17.4082 47.165 18.4043V18.939C47.165 19.9497 46.9624 20.8384 46.5571 21.605C46.1567 22.3716 45.583 22.9624 44.8359 23.3774C44.0938 23.7925 43.2417 24 42.2798 24H39.2109ZM41.064 14.8301V22.5205H42.2725C43.2441 22.5205 43.9888 22.2178 44.5063 21.6123C45.0288 21.002 45.2949 20.1279 45.3047 18.9902V18.397C45.3047 17.2397 45.0532 16.356 44.5503 15.7456C44.0474 15.1353 43.3174 14.8301 42.3604 14.8301H41.064ZM48.5054 19.9644C48.5054 19.188 48.6592 18.4897 48.9668 17.8696C49.2744 17.2446 49.7065 16.7661 50.2632 16.4341C50.8198 16.0972 51.4595 15.9287 52.1821 15.9287C53.2515 15.9287 54.1182 16.2729 54.7822 16.9614C55.4512 17.6499 55.8125 18.563 55.8662 19.7007L55.8735 20.1182C55.8735 20.8994 55.7222 21.5977 55.4194 22.2129C55.1216 22.8281 54.6919 23.3042 54.1304 23.6411C53.5737 23.978 52.9292 24.1465 52.1968 24.1465C51.0786 24.1465 50.1826 23.7754 49.5088 23.0332C48.8398 22.2861 48.5054 21.2925 48.5054 20.0522V19.9644ZM50.2852 20.1182C50.2852 20.9336 50.4536 21.5732 50.7905 22.0371C51.1274 22.4961 51.5962 22.7256 52.1968 22.7256C52.7974 22.7256 53.2637 22.4912 53.5957 22.0225C53.9326 21.5537 54.1011 20.8677 54.1011 19.9644C54.1011 19.1636 53.9277 18.5288 53.5811 18.0601C53.2393 17.5913 52.7729 17.3569 52.1821 17.3569C51.6011 17.3569 51.1396 17.5889 50.7979 18.0527C50.4561 18.5117 50.2852 19.2002 50.2852 20.1182ZM59.0303 16.0752L59.0815 16.9907C59.6675 16.2827 60.4365 15.9287 61.3887 15.9287C63.0391 15.9287 63.8789 16.8735 63.9082 18.7632V24H62.1284V18.8657C62.1284 18.3628 62.0186 17.9917 61.7988 17.7524C61.584 17.5083 61.23 17.3862 60.7368 17.3862C60.019 17.3862 59.4844 17.7109 59.1328 18.3604V24H57.353V16.0752H59.0303ZM69.2183 24.1465C68.0903 24.1465 67.1748 23.7925 66.4717 23.0845C65.7734 22.3716 65.4243 21.4243 65.4243 20.2427V20.0229C65.4243 19.2319 65.5757 18.5264 65.8784 17.9062C66.186 17.2812 66.6157 16.7954 67.1675 16.4487C67.7192 16.1021 68.3345 15.9287 69.0132 15.9287C70.0923 15.9287 70.9248 16.2729 71.5107 16.9614C72.1016 17.6499 72.397 18.624 72.397 19.8838V20.6016H67.2188C67.2725 21.2559 67.4897 21.7734 67.8706 22.1543C68.2563 22.5352 68.7397 22.7256 69.3208 22.7256C70.1362 22.7256 70.8003 22.396 71.313 21.7368L72.2725 22.6523C71.9551 23.126 71.5303 23.4946 70.998 23.7583C70.4707 24.0171 69.8774 24.1465 69.2183 24.1465ZM69.0059 17.3569C68.5176 17.3569 68.1221 17.5278 67.8193 17.8696C67.5215 18.2114 67.3311 18.6875 67.248 19.2979H70.6392V19.166C70.6001 18.5703 70.4414 18.1211 70.1631 17.8184C69.8848 17.5107 69.499 17.3569 69.0059 17.3569Z" fill="white"/>
</svg>
