<svg width="12" height="12" viewBox="0 0 12 12" fill="none" xmlns="http://www.w3.org/2000/svg">
<path d="M7.14624 1.93213L0.779246 8.29958C0.747214 8.3317 0.724085 8.37227 0.713071 8.41587L0.00735081 11.2485C-0.0137593 11.3337 0.0112975 11.4244 0.0735264 11.4867C0.120611 11.5337 0.184767 11.5598 0.250392 11.5598C0.270493 11.5598 0.291052 11.5573 0.311061 11.5523L3.14367 10.8465C3.18782 10.8355 3.22793 10.8124 3.25996 10.7804L9.6275 4.41339L7.14624 1.93213Z" fill="#3D4455"/>
<path d="M11.2048 1.06385L10.4961 0.355097C10.0224 -0.118595 9.19679 -0.118136 8.72364 0.355097L7.85547 1.22327L10.3366 3.70444L11.2048 2.83627C11.4414 2.59974 11.5718 2.28493 11.5718 1.9501C11.5718 1.61528 11.4414 1.30046 11.2048 1.06385Z" fill="#3D4455"/>
</svg>
