<svg width="13" height="13" viewBox="0 0 13 13" fill="none" xmlns="http://www.w3.org/2000/svg">
<path fill-rule="evenodd" clip-rule="evenodd" d="M8 5.9005H12.3429C12.541 5.9005 12.7238 6.08782 12.7238 6.29074C12.7238 6.50928 12.5562 6.68099 12.3429 6.68099H8C7.83238 7.47708 7.13143 8.07025 6.30857 8.07025C5.48571 8.07025 4.78476 7.47708 4.61714 6.68099H0.380952C0.167619 6.68099 0 6.50928 0 6.29074C0 6.07221 0.167619 5.9005 0.380952 5.9005H4.61714C4.78476 5.1044 5.48571 4.51123 6.30857 4.51123C7.13143 4.51123 7.83238 5.1044 8 5.9005ZM5.33333 6.29074C5.33333 6.83708 5.77524 7.28977 6.30857 7.28977C6.84191 7.28977 7.28381 6.83708 7.28381 6.29074C7.28381 5.7444 6.84191 5.29172 6.30857 5.29172C5.77524 5.29172 5.33333 5.7444 5.33333 6.29074Z" fill="#1E37F8"/>
<path fill-rule="evenodd" clip-rule="evenodd" d="M3.44383 2.16976C3.27621 2.96585 2.57526 3.55902 1.7524 3.55902C0.792402 3.55902 0.0152588 2.74732 0.0152588 1.77951C0.0152588 0.811707 0.792402 0 1.7524 0C2.57526 0 3.27621 0.593171 3.44383 1.38927H12.3276C12.541 1.38927 12.7086 1.56098 12.7086 1.77951C12.7086 1.99805 12.541 2.16976 12.3276 2.16976H3.44383ZM2.72764 1.77951C2.72764 1.23317 2.28574 0.780488 1.7524 0.780488C1.21907 0.780488 0.777164 1.23317 0.777164 1.77951C0.777164 2.32585 1.21907 2.77854 1.7524 2.77854C2.28574 2.77854 2.72764 2.32585 2.72764 1.77951Z" fill="#1E37F8"/>
<path fill-rule="evenodd" clip-rule="evenodd" d="M9.28 10.4274C9.46286 9.64688 10.1486 9.05371 10.9714 9.05371C11.9162 9.05371 12.7086 9.84981 12.7086 10.8332C12.7086 11.8166 11.9314 12.6127 10.9714 12.6127C10.1486 12.6127 9.44762 12.004 9.28 11.2079H0.380952C0.167619 11.2079 0 11.0361 0 10.8176C0 10.5991 0.167619 10.4274 0.380952 10.4274H9.28ZM9.99619 10.8176C9.99619 11.364 10.4381 11.8166 10.9714 11.8166C11.5048 11.8166 11.9467 11.364 11.9467 10.8176C11.9467 10.2713 11.5048 9.81859 10.9714 9.81859C10.4381 9.81859 9.99619 10.2713 9.99619 10.8176Z" fill="#1E37F8"/>
</svg>
