<svg width="15" height="16" viewBox="0 0 15 16" fill="none" xmlns="http://www.w3.org/2000/svg">
<path fill-rule="evenodd" clip-rule="evenodd" d="M11.291 8.03516H13.3838C14.275 8.03516 15 8.76014 15 9.65141V14.3585C15 15.2496 14.275 15.9746 13.3838 15.9746H8.6768C8.21331 15.9746 7.79503 15.7782 7.5 15.4645C7.20497 15.7782 6.78669 15.9746 6.3232 15.9746H1.61625C0.724983 15.9746 0 15.2496 0 14.3585V9.65141C0 8.76014 0.724983 8.03516 1.61625 8.03516H3.70903C3.59505 7.81394 3.53027 7.56343 3.53027 7.29793V2.59086C3.53027 1.69959 4.25526 0.974609 5.14652 0.974609H9.85348C10.7447 0.974609 11.4697 1.69959 11.4697 2.59086V7.29793C11.4697 7.56343 11.405 7.81394 11.291 8.03516ZM14.121 13.6836V9.65143C14.121 9.24482 13.7903 8.91409 13.3837 8.91409H12.6465V10.3574C12.6465 10.6001 12.4496 10.7969 12.207 10.7969H9.85343C9.61081 10.7969 9.41397 10.6001 9.41397 10.3574V8.91409H8.67675C8.27014 8.91409 7.9394 9.24482 7.9394 9.65143V13.6836H14.121ZM11.7677 9.91797H10.293V8.91409H11.7677V9.91797ZM8.23729 2.85742V1.85354H6.7626V2.85742H8.23729ZM5.14651 1.85354H5.88374V3.29687C5.88374 3.5396 6.08058 3.73632 6.32319 3.73632H8.67678C8.9194 3.73632 9.11624 3.5396 9.11624 3.29687V1.85354H9.85347C10.2601 1.85354 10.5908 2.18428 10.5908 2.59088V6.6231H4.40917V2.59088C4.40917 2.18428 4.7399 1.85354 5.14651 1.85354ZM10.5619 7.50195H4.43818C4.52699 7.80945 4.8108 8.03513 5.14657 8.03513H9.85353C10.1893 8.03513 10.4731 7.80945 10.5619 7.50195ZM4.70706 8.91409V9.91797H3.23237V8.91409H4.70706ZM2.3535 8.91409H1.61627C1.20967 8.91409 0.878932 9.24482 0.878932 9.65143V13.6836H7.06057V9.65143C7.06057 9.24482 6.72984 8.91409 6.32323 8.91409H5.586V10.3574C5.586 10.6001 5.38916 10.7969 5.14655 10.7969H2.79296C2.55034 10.7969 2.3535 10.6001 2.3535 10.3574V8.91409ZM6.32313 15.0957H1.61618C1.28041 15.0957 0.996594 14.87 0.907788 14.5625H7.03152C6.94272 14.87 6.6589 15.0957 6.32313 15.0957ZM8.67681 15.0957H13.3838C13.7195 15.0957 14.0033 14.87 14.0921 14.5625H7.96842C8.05722 14.87 8.34104 15.0957 8.67681 15.0957Z" fill="#BEBEBE"/>
</svg>
