<svg width="72" height="72" viewBox="0 0 72 72" fill="none" xmlns="http://www.w3.org/2000/svg">
<rect width="72" height="72" fill="#fff"/>
<g clip-path="url(#clip0)">
<path d="M71.9889 17.7956C71.9497 17.3979 71.7948 16.9988 71.5227 16.6668C71.4177 16.5384 72.492 17.621 55.4908 0.619851C55.0856 0.214575 54.5355 0.00181257 53.9986 0.00195319C52.7194 0.00195319 7.60236 0.00195319 6.32804 0.00195319C2.83876 0.00195319 0 2.84071 0 6.32999V65.6729C0 69.1622 2.83876 72.001 6.32804 72.001H65.671C69.1603 72.001 71.999 69.1622 71.999 65.6729C71.9991 14.46 72.0048 17.9573 71.9889 17.7956V17.7956ZM48.5151 4.22065V18.0017C48.5151 19.1648 47.5688 20.1111 46.4058 20.1111H43.7339V4.22065H48.5151ZM39.5152 4.22065V20.1111H19.9686C18.8055 20.1111 17.8593 19.1648 17.8593 18.0017V4.22065H39.5152ZM48.5151 45.142H17.8593V42.4701C17.8593 41.307 18.8055 40.3608 19.9686 40.3608H46.4058C47.5688 40.3608 48.5151 41.307 48.5151 42.4701V45.142ZM17.8593 67.7823V49.3607H48.5151V67.7823H17.8593ZM67.7805 65.6729C67.7805 66.836 66.8342 67.7823 65.6711 67.7823H52.7338C52.7338 65.0324 52.7338 45.6049 52.7338 42.4701C52.7338 38.9808 49.895 36.1421 46.4058 36.1421H19.9686C16.4793 36.1421 13.6406 38.9808 13.6406 42.4701V67.7823H6.32818C5.16509 67.7823 4.21883 66.836 4.21883 65.6729V6.32999C4.21883 5.1669 5.16509 4.22065 6.32818 4.22065H13.6406V18.0017C13.6406 21.491 16.4793 24.3297 19.9686 24.3297H46.4058C49.895 24.3297 52.7338 21.491 52.7338 18.0017V4.22065H53.1257L67.7805 18.8755V65.6729Z" fill="#1e37f8"/>
</g>
<defs>
<clipPath id="clip0">
<rect width="72" height="72" fill="#fff"/>
</clipPath>
</defs>
</svg>
