<svg width="16" height="17" viewBox="0 0 16 17" fill="none" xmlns="http://www.w3.org/2000/svg">
<path fill-rule="evenodd" clip-rule="evenodd" d="M14.828 1.36548L15.9709 4.79406C15.9885 4.84739 15.9983 4.90301 16 4.95919V4.97463V5.54607C15.998 6.44138 15.5745 7.28352 14.8572 7.81921V7.83176V15.2604C14.8572 16.2071 14.0896 16.9746 13.1429 16.9746H2.85714C1.91036 16.9746 1.14285 16.2071 1.14285 15.2604V7.83176V7.81921C0.425458 7.28352 0.0020759 6.44138 0 5.54607V4.97463V4.95919C0.00167411 4.90304 0.0115179 4.84743 0.0291295 4.79406L1.17201 1.36548C1.24976 1.13201 1.46823 0.974542 1.71429 0.974609H14.2857C14.5318 0.974542 14.7503 1.13201 14.828 1.36548ZM13.8737 2.11742H12V4.40315H14.636L13.8737 2.11742ZM8.57146 2.11742H10.8572V4.40315H8.57146V2.11742ZM7.42865 2.11742H5.14292V4.40315H7.42865V2.11742ZM2.12626 2.11742H3.99999V4.40315H1.36397L2.12626 2.11742ZM6.85708 15.8318H9.14281V11.2603H6.85708V15.8318ZM13.7142 15.2603C13.7142 15.5759 13.4584 15.8318 13.1428 15.8318H10.2856V10.6889C10.2856 10.3733 10.0298 10.1175 9.71421 10.1175H6.28563C5.97003 10.1175 5.71419 10.3733 5.71419 10.6889V15.8318H2.85706C2.54145 15.8318 2.28562 15.5759 2.28562 15.2603V8.34603C3.08755 8.51066 3.92146 8.31927 4.57134 7.82146C5.59141 8.57066 6.97985 8.57066 7.99992 7.82146C9.01999 8.57066 10.4084 8.57066 11.4285 7.82146C12.0784 8.31931 12.9123 8.51066 13.7142 8.34603V15.2603ZM11.8589 6.66722C12.1795 7.04329 12.6488 7.26006 13.1429 7.26036C14.0897 7.26036 14.8572 6.49285 14.8572 5.54607H1.14292C1.14292 6.49285 1.91044 7.26036 2.85721 7.26036C3.35141 7.26006 3.82063 7.04329 4.14122 6.66722C4.14939 6.65852 4.15786 6.65008 4.16657 6.64188C4.40419 6.41821 4.77815 6.4296 5.00178 6.66722C5.04383 6.71416 5.0884 6.75873 5.13534 6.80078C5.84449 7.43614 6.93444 7.37637 7.5698 6.66722C7.57797 6.65852 7.58644 6.65008 7.59514 6.64188C7.8328 6.41821 8.20673 6.4296 8.43036 6.66722C8.47241 6.71416 8.51701 6.75873 8.56392 6.80078C9.27307 7.43614 10.363 7.37637 10.9984 6.66722C11.0152 6.64794 11.0334 6.62979 11.0526 6.61295C11.2903 6.40529 11.6513 6.4296 11.8589 6.66722Z" fill="#BEBEBE"/>
</svg>
